<svg xmlns="http://www.w3.org/2000/svg" viewBox="0 0 554.12 284.03"><defs><style>.cls-1{fill:#fff;}</style></defs><g id="Layer_2" data-name="Layer 2"><g id="Layer_1-2" data-name="Layer 1"><path class="cls-1" d="M499.39,8.24C475.73,4.61,452.2,2.33,428.53,1,318.68-4.66,210,14,103.4,56.92,81.75,65.39,60.1,75.21,38.59,86,25.68,92.28,12.77,99.14,0,106.27L32.67,165c8.74-4.84,17.35-9.42,26.09-14C96.41,229.57,176.82,284,269.6,284c119.94,0,219.17-91,232.21-207.61,12.64,2.15,25.28,4.57,37.92,7.39l14.39-65.62C535.83,14.16,517.68,10.8,499.39,8.24ZM269.6,216.79A164.85,164.85,0,0,1,157.32,173a68.61,68.61,0,0,0,32.27,7.93,70.67,70.67,0,0,0,70.59-70.59,69.75,69.75,0,0,0-6.32-28.91A667.65,667.65,0,0,1,435.12,69C425.71,152,355.11,216.79,269.6,216.79Z"/></g></g></svg>